# xmcd CD database file
#
# Track frame offsets:
#	150
#	27133
#	54446
#	84183
#	103017
#	137101
#
# Disc length: 2367 seconds
#
# Revision: 0
# Processed by: cddbd v1.5.2PL0 Copyright (c) Steve Scherf et al.
# Submitted via: CDex 1.51
#
DISCID=41093d06
DTITLE=Harley, Rufus Harley - King/Queens
DYEAR=1970
DGENRE=Jazz
TTITLE0=Eight Miles High
TTITLE1=Moon River
TTITLE2=Love Is Blue
TTITLE3=Windy
TTITLE4=King
TTITLE5=Queens
EXTD=YEAR: 1970
EXTT0=
EXTT1=
EXTT2=
EXTT3=
EXTT4=
EXTT5=
PLAYORDER=
